<svg version="1.2" xmlns="http://www.w3.org/2000/svg" viewBox="0 0 1080 1080" width="1080" height="1080">
	<title>accizard-logo-psd</title>
	<defs>
		<linearGradient id="g1" x2="1" gradientUnits="userSpaceOnUse" gradientTransform="matrix(504.635,0,0,498.135,288,399.068)">
			<stop offset="-0.033" stop-color="#000000"/>
			<stop offset="0" stop-color="#ff4f0b"/>
			<stop offset="1" stop-color="#d32f2f"/>
		</linearGradient>
	</defs>
	<style>
		.s0 { fill: url(#g1) } 
		.s1 { fill: #263238 } 
	</style>
	<g id="Logotype Warped">
	</g>
	<path id="Logo Mark" fill-rule="evenodd" class="s0" d="m529 154.4c-4.6 2.3-10.7 5.2-13.7 6.5-2.9 1.2-8 3.4-11.3 4.9-3.4 1.4-8.3 3.6-11 4.7-2.7 1.2-5.3 2.1-5.7 2.1-0.4 0-3 1-5.7 2.2-2.7 1.1-11.1 4.3-18.6 6.9-7.5 2.6-15 5.4-16.6 6.1-1.7 0.7-5.8 2.1-9.1 3-3.4 1-7.5 2.3-9.1 3-1.7 0.7-10.6 3.3-19.7 5.8-9.2 2.6-20.8 5.7-25.8 7-5 1.3-12.9 3.1-17.4 4.1-4.6 0.9-11.8 2.3-16 3-4.1 0.7-18.5 2.9-31.8 5-13.3 2.1-25.4 3.8-26.9 3.9-2.4 0-2.7 2.1-2.6 21.6 0 11.9 1.1 29.5 2.3 39.1 1.3 9.6 2.9 22.2 3.7 28 0.7 5.9 2.7 16.8 4.4 24.3 1.6 7.5 4.4 18.7 6.1 25 1.8 6.2 3.7 13.6 4.3 16.3 0.6 2.7 1.6 5 2.3 4.9 0.6 0 1.1 1.6 1.1 3.4 0 1.9 2.1 8.4 4.6 14.4 2.4 6.1 4.5 11.7 4.5 12.5 0 0.9 2.1 6.2 4.7 11.8 2.6 5.6 8.1 17.4 12.4 26.1 4.2 8.8 9 17.3 10.5 19 2.8 3 2.8 3 7-1.5 2.3-2.5 5.8-7 7.8-9.9 2.1-2.9 5.3-7 7.2-9.1 1.9-2.1 3.5-4.3 3.5-4.9 0-0.6 2.3-3.7 5.2-6.8 2.9-3.2 5.3-7.1 5.3-8.7 0.1-1.7-2-7-4.5-11.8-2.5-4.8-4.5-9.7-4.5-11 0-1.2-0.5-2.3-1.2-2.3-0.6 0-1.9-2.2-2.9-4.9-1-2.7-5-14.1-8.9-25.4-4-11.2-8.5-25.9-10.1-32.6-1.7-6.6-3.5-15.5-4.2-19.7-0.7-4.1-2.4-14.4-3.7-22.7-1.3-8.4-2.3-18.2-2.4-22v-6.8c32.3-6.6 44.8-9.1 48.5-9.9 3.8-0.8 9.9-2.2 13.7-3.1 3.7-0.9 9-1.9 11.7-2.3 2.7-0.3 5.3-1.3 5.7-2.2 0.4-0.8 2-1.5 3.4-1.5 1.5 0 13.2-3.4 26.2-7.6 12.9-4.1 24.8-8.1 26.5-8.8 1.7-0.8 7.1-2.9 12.1-4.7 5-1.8 15.9-6.2 24.3-9.6 8.3-3.5 17.5-7.5 20.4-8.9 5.1-2.4 5.6-2.4 11 0.4 3.2 1.5 6.7 2.8 8 2.8 1.2 0 2.3 0.7 2.3 1.6 0 0.8 1 1.5 2.2 1.5 1.3 0 6.6 2 11.8 4.4 5.2 2.4 13.6 5.9 18.6 7.7 5 1.8 10.4 3.9 12.1 4.6 1.7 0.6 7.8 2.7 13.6 4.6 5.9 1.8 12 3.9 13.7 4.5 1.6 0.7 6.6 2.3 11 3.6 4.3 1.3 9.1 2.1 10.6 1.7 1.4-0.5 3.5-2.7 4.5-5 1.1-2.3 1.9-4.7 1.9-5.3 0-0.6 2-5.4 4.4-10.6 2.4-5.2 5.8-12.7 7.6-16.7 1.7-3.9 3.2-7.5 3.2-7.9 0-0.4-2.2-2.1-4.9-3.8-2.8-1.7-6.5-3-8.4-3-1.9 0-4.6-0.7-6-1.4-1.5-0.8-10.9-4.1-20.9-7.5-10-3.3-20.6-6.9-23.5-7.9-2.9-1.1-7.3-2.8-9.8-3.8-2.5-1.1-7.7-3.1-11.4-4.5-3.8-1.4-9.2-3.6-12.1-4.8-3-1.3-11.5-5.3-19-8.9-7.5-3.7-14.7-6.7-15.9-6.6-1.3 0.1-6 2-10.6 4.4zm182.4 25.4c-0.5 1.5-3.6 8.3-6.8 15.2-3.2 6.9-5.8 12.8-5.8 13.2 0 0.5-2.1 5.2-4.6 10.7-2.5 5.4-4.5 10.1-4.5 10.6 0 0.4-1.7 4.3-3.6 8.7-2 4.4-5.9 13.1-8.5 19.3-2.7 6.3-5.9 13.8-7.2 16.7-1.2 2.9-2.8 6.7-3.5 8.3-0.6 1.7-3.6 8.3-6.6 14.8-3 6.5-5.5 12.4-5.5 13.3 0 0.8 1 1.5 2.3 1.5 1.2 0 2.3-0.7 2.3-1.5 0-0.9 1.2-1.8 2.6-2.2 1.5-0.4 4.7-1.9 7.1-3.4 2.5-1.5 5.2-3.3 6.1-4 0.9-0.6 5.3-3.4 9.9-6.1 4.6-2.7 10.1-6 12.2-7.2 2-1.2 4.1-2.6 4.5-3.1 0.4-0.5 2.5-1.7 4.6-2.8 2-1.1 9.7-6 17-10.9 7.3-4.8 14-8.8 14.8-8.8 0.8 0 1.7-0.6 1.9-1.2 0.2-0.6 5.5-4.2 11.7-7.9 6.3-3.8 11.6-7.3 11.8-8 0.2-0.6 1-1.1 1.9-1.1 0.8 0 5.8-2.7 11-6 5.2-3.3 11.1-7.2 13.2-8.6 3.8-2.5 3.8-2.6 0.8-4.6-1.7-1.2-6.1-2.1-9.9-2.1-3.7 0-10.5-0.6-15.1-1.4-4.6-0.8-14.8-2.6-22.8-3.9-7.9-1.3-15.4-2.7-16.6-3-1.3-0.4-2.8-3.2-3.4-6.4-0.6-3.1-2.1-10.5-3.4-16.3-1.3-5.9-2.7-11.5-3.1-12.5-0.4-1.1-1.5-1.9-2.3-1.9-0.9 0-2 1.2-2.5 2.6zm73.8 68.2c0 0.7-3.3 2.9-7.2 4.9-4 2.1-7.6 4.1-8 4.6-0.4 0.4-2.8 2.1-5.3 3.8-2.5 1.7-6.2 3.9-8.3 5-2.1 1-7.2 4.5-11.4 7.6l-7.6 5.7c-1.5 18.7-2.7 28.6-3.7 34-1.1 5.4-2.4 12.9-3.1 16.7-0.7 3.7-2.4 10.9-3.8 15.9-1.3 5-3.1 11.5-3.8 14.4-0.7 2.9-3.4 10.8-5.8 17.4-2.5 6.7-5.3 14.2-6.3 16.7-0.9 2.5-3.5 8.3-5.6 12.9-2.1 4.6-5.9 12.8-8.5 18.2-2.6 5.4-5.1 10.2-5.5 10.6-0.5 0.4-2.5 3.8-4.5 7.6-2.1 3.7-4.5 8.1-5.4 9.8-0.8 1.6-2.1 3.6-2.8 4.5-0.7 0.9-2.7 4.2-4.6 7.4l-3.3 5.8c-30.3-59.5-49.4-97.3-62-122.3-12.5-25-23.3-45.6-24-45.8-0.6-0.2-1.1-1.6-1.1-3.1 0-1.4-0.5-3.2-1.1-3.8-0.7-0.7-4.6-7.9-8.8-15.9l-7.6-14.8h-51.3c-15.4 30.6-20.4 39.6-21.1 39.8-0.6 0.3-1.1 1.4-1.1 2.7 0 1.2-2 5.7-4.5 9.8-2.6 4.2-4.6 8.7-4.6 9.9 0 1.3-0.5 2.4-1.1 2.7-0.7 0.2-5.5 8.9-10.8 19.3-5.2 10.4-17.1 33.9-26.3 52.3-13 25.9-17 32.7-18.1 30.7-0.7-1.5-2.2-2.7-3.2-2.7-1 0-3.3 1.5-4.9 3.4-1.7 1.9-4.8 5.8-6.8 8.8-2 2.9-4.1 5.6-4.6 6-0.5 0.4-2.5 3.2-4.5 6.1-2 2.9-4.1 5.6-4.6 6.1-0.5 0.4-2.5 3.1-4.5 6-2 2.9-4.1 5.7-4.6 6.1-0.5 0.4-2.6 3.1-4.6 6-2 3-4.5 6.4-5.5 7.6-1 1.3-4.9 6.2-8.7 11-3.8 4.8-7 9.4-7 10.2 0 0.9-0.5 1.7-1.2 1.9-0.6 0.2-3.5 3.5-6.4 7.2-2.9 3.8-5.6 7.2-6 7.6-0.4 0.4-2.6 3.2-4.8 6.1-2.2 2.9-5.4 7-7.2 9.1-1.8 2.1-3.2 4.1-3.2 4.5 0 0.4-1.8 2.7-4.1 5.1q-4.2 4.3-2.7 5.8 1.5 1.5 6.1-1.2c2.5-1.6 5.4-3.7 6.4-4.7 1.1-1.1 3.3-2.3 4.9-2.7 1.7-0.4 3.1-1.3 3-1.9 0-0.6 2.1-2.2 4.6-3.4 2.6-1.3 4.6-2.6 4.6-3-0.1-0.5 2-1.8 4.5-3.1 2.6-1.2 4.7-2.8 4.6-3.4 0-0.6 1.2-1.5 2.6-1.9 1.5-0.4 5.1-2.4 8-4.5 2.9-2.1 6-4.3 6.8-5 0.8-0.7 13.1-9 27.3-18.5 14.2-9.4 25.9-17.7 26.1-18.5 0.3-0.7 6.7-1.2 14.4-1.2l14.1-0.1c13.9-27.5 19.4-38.5 21.1-42l3.1-6.5 41 0.1c5.8-9.4 8-12.1 8.7-12.1 0.6 0 1.1-0.7 1.1-1.6 0-0.8 4.1-7.6 9.1-15.1 5-7.5 8.8-14.4 8.3-15.2-0.4-0.9-9.6-1.5-22.7-1.5-12.1 0-22-0.5-22-1.2 0-0.6 5.9-13 13-27.6l13.1-26.5c5.1 9.3 12.4 23.7 19.4 37.8 7.1 14.2 13.4 26 14 26.2 0.6 0.2 1.2 1.2 1.2 2.3 0 1 9.1 20.1 20.1 42.3l20 40.5 47.8 0.9c-12.2 15.3-19.2 23.4-23.4 27.9-4.2 4.5-9.8 10.3-12.3 12.9-2.6 2.6-8.8 8.5-13.7 13-4.9 4.6-12.1 10.8-15.8 13.7-3.8 2.9-7.2 5.6-7.6 6-0.4 0.5-6.5 5-13.6 10.1-7.1 5.1-17.5 12.1-23.1 15.5-5.7 3.5-11.1 6.3-12.2 6.2-1 0-4.6-1.5-7.9-3.4-3.3-1.8-6.8-3.9-7.6-4.5-0.8-0.6-5.9-4.1-11.3-7.6-5.3-3.5-10.8-7.1-12.1-7.9-1.3-0.8-2.7-1.9-3.1-2.3-0.5-0.5-5.6-4.5-11.4-9.1-5.8-4.5-12.6-10-15-12.1-2.4-2.1-12.1-11.5-21.6-20.8-9.5-9.4-18.1-17.1-19.1-17.1-1.1 0-3.4 1.3-5.3 3-1.9 1.7-3.9 3-4.6 3-0.6 0-2.5 1.3-4.1 2.8-1.7 1.5-8.1 6.1-14.3 10.2-6.1 4.2-11.4 8-11.7 8.7-0.3 0.6 10.5 12.4 24.1 26.3 13.5 13.8 31 30 38.9 36 7.9 5.9 15.1 11.5 15.9 12.4 0.9 0.9 4.9 3.8 8.8 6.4 4 2.7 7.9 4.9 8.8 4.9 0.8 0 1.6 0.5 1.8 1.1 0.3 0.7 2.6 2.7 5.4 4.6 2.7 1.9 5.2 3.4 5.6 3.4 0.5 0 3.7 1.9 7.2 4.2 3.6 2.3 11.6 6.8 17.9 10.1 6.2 3.2 11.7 6.5 12.1 7.2 0.4 0.7 1.9 1 3.4 0.5 1.4-0.4 2.6-1.5 2.6-2.3 0-0.8 0.9-1.5 1.9-1.5 1.1 0 5-1.5 8.8-3.4 3.7-1.9 6.9-3.9 7.2-4.6 0.2-0.6 1-1.1 1.8-1.1 0.9 0 5.5-2.5 10.3-5.5 4.8-3.1 13.5-8.7 19.3-12.5 5.8-3.9 11.5-7.8 12.6-8.9 1.1-1.1 2.5-1.9 3.1-1.9 0.5 0 2.7-1.5 4.8-3.4 2.1-1.9 6.5-5.3 9.9-7.6 3.3-2.3 10.1-7.8 15-12.1 5-4.4 15.3-14.1 22.8-21.6 7.5-7.5 17.2-17.8 21.6-22.8 4.3-5 11.5-13.8 16-19.7 4.4-5.8 11.5-15.7 15.8-22 4.2-6.2 9.8-15.1 12.4-19.7 2.6-4.6 9.7-18.5 15.8-31.1 6.2-12.5 12-25.1 13.1-28 1-2.9 2.4-6.7 3.1-8.3 0.6-1.7 2.2-5.6 3.6-8.8 1.4-3.1 2.5-6.3 2.5-7.2 0-0.8 0.9-3.7 2.1-6.4 1.2-2.7 2.5-6.6 2.9-8.7 0.5-2.1 2.3-8.9 4.1-15.2 1.8-6.2 3.9-14.1 4.5-17.4 0.7-3.3 2-9.8 2.9-14.4 1-4.6 2.5-13.1 3.3-19 0.9-5.8 2.2-16.4 3-23.5 0.8-7 1.8-19.5 2.3-27.6 0.7-14.1 0.6-14.8-2.3-14.8-1.7 0-3.1 0.5-3.1 1.1z"/>
	<path id="accizard lucban" fill-rule="evenodd" class="s1" d="m381.7 795.2q6-2.1 10.8-5.2 4.8-3 8.6-7 3.8-4.1 7-8.7l-18.7-11.9q-2.1 2.6-4.2 4.8-2.1 2.1-4.5 3.9-2.3 1.7-5.2 2.7-2.9 1-6.4 1.3-4.7 0.4-8.7-1-3.8-1.5-6.7-4.4-2.8-3-4.4-7.2-1.6-4.3-1.6-9.3v-0.3q0-4.9 1.6-9.4 1.6-4.5 4.4-8 2.9-3.4 6.7-5.7 4-2.2 8.7-2.7 6.6-0.6 11.1 1.8 4.7 2.5 8.6 7l18.7-15.9q-2.9-3.9-6.8-7.1-3.7-3.1-8.4-5.3-4.7-2.1-10.4-2.9-5.6-0.9-12.5-0.3-10.3 1-19 5.4-8.6 4.4-14.9 11.5-6.2 7-9.8 16-3.6 8.9-3.6 18.6v0.2q0 10.1 3.6 18.2 3.7 8.1 9.9 13.7 6.2 5.5 14.6 8.2 8.6 2.6 18.1 1.7 7.5-0.7 13.4-2.7zm93.8-6.2q6-1.8 10.8-4.7 4.8-2.9 8.6-6.7 3.8-3.9 7-8.4l-18.7-12.6q-2.1 2.5-4.2 4.6-2.1 2-4.5 3.6-2.4 1.6-5.3 2.5-2.9 0.9-6.4 1.1-4.7 0.3-8.6-1.3-3.9-1.7-6.7-4.7-2.9-3.1-4.5-7.4-1.6-4.4-1.6-9.4v-0.2q0-4.9 1.6-9.3 1.6-4.5 4.5-7.9 2.8-3.3 6.7-5.4 3.9-2.1 8.6-2.4 6.6-0.3 11.2 2.3 4.6 2.6 8.5 7.3l18.8-15.2q-2.9-4-6.8-7.3-3.7-3.3-8.4-5.6-4.8-2.3-10.4-3.4-5.7-1.1-12.6-0.8-10.3 0.6-19 4.7-8.6 4.1-14.9 10.9-6.3 6.7-9.9 15.5-3.6 8.8-3.6 18.5v0.3q0 10 3.6 18.2 3.7 8.3 10 14.2 6.2 5.8 14.6 8.7 8.6 3 18.2 2.5 7.4-0.4 13.4-2.2zm62.7-2.3c0 0 0-5.6 0-14.1 0-8.4 0-19.6 0-30.8 0-11.3 0-22.5 0-30.9 0-8.4 0-14 0-14l-25.1 0.6c0 0 0 5.6 0 14 0 8.4 0 19.7 0 30.9 0 11.2 0 22.4 0 30.9 0 8.4 0 14 0 14zm30.3-0.4c9.3 0 21.6 0 33.9 0.1 12.4 0.1 24.7 0.3 34 0.5 9.2 0.2 15.4 0.4 15.4 0.4v-26.1c0 0-14-0.4-28-0.6-14-0.2-28-0.4-28-0.4 0 0 3.5-3.9 8.8-9.7 5.2-5.8 12.2-13.6 19.2-21.3 7-7.7 14-15.4 19.2-21.2 5.3-5.7 8.8-9.6 8.8-9.6v-22.4c0 0-6.1-0.2-15.2-0.4-9-0.2-21.1-0.4-33.2-0.5-12.1-0.1-24.2-0.1-33.3-0.1-9.1 0.1-15.1 0.2-15.1 0.2v26c0 0 13.5-0.1 27-0.1 13.5 0 27 0.1 27 0.1 0 0-3.5 3.9-8.7 9.7-5.2 5.9-12.2 13.7-19.2 21.6-7 7.8-14 15.7-19.3 21.6-5.2 6-8.7 9.9-8.7 9.9v22.5c0 0 6.2-0.1 15.4-0.2zm116.5 2.2l6.4-15.8 34.7 1.9 6.6 16.5 26.7 1.8c0 0-2.4-5.8-6-14.6-3.6-8.7-8.3-20.3-13.1-32-4.8-11.6-9.6-23.2-13.2-31.9-3.6-8.7-5.9-14.5-5.9-14.5l-24.1-1.3c0 0-2.4 5.5-6 13.9-3.6 8.3-8.4 19.4-13.2 30.5-4.8 11.1-9.6 22.2-13.2 30.6-3.5 8.3-5.9 13.9-5.9 13.9zm23.9-59.8l10 26.1-20.2-1.1zm84.1 67v-27.2l10.6 1h0.3l18.1 29 28.7 3.1c0 0-5.4-8.4-10.7-16.8-5.4-8.4-10.7-16.8-10.7-16.8q8.4-2.7 13.4-8.9 5-6.3 5-16.7v-0.2q0-13.2-7.9-21.8-4.5-5.2-11.7-8.5-7.1-3.3-17.5-4.3c0 0-10.6-1.1-21.2-2-10.7-0.9-21.3-1.8-21.3-1.8 0 0 0 5.6 0 14 0 8.5 0 19.7 0 30.9 0 11.2 0 22.5 0 30.9 0 8.4 0 14 0 14zm0-68.2l16.3 1.5q6.3 0.6 9.9 3.6 3.5 3 3.5 8.4v0.3q0 4.8-3.4 7.4-3.4 2.5-9.9 1.9l-16.4-1.5zm101.4 79.6q12 1.6 21.4-0.4 9.6-2.1 16-7.2 6.6-5 10-12.7 3.5-7.7 3.5-17.5v-0.3q0-9.7-3.4-18.4-3.4-8.7-9.8-15.5-6.4-6.9-15.8-11.5-9.5-4.7-21.4-6.3l-34.6-4.4c0 0 0 5.7 0 14.1 0 8.4 0 19.6 0 30.9 0 11.2 0 22.4 0 30.8 0 8.4 0 14.1 0 14.1zm-9.2-46.1c0-11.4 0-22.9 0-22.9l10.1 1.4q11.1 1.5 17.8 8.4 6.8 6.9 6.8 17.7v0.2q0 10.9-6.8 15.9-6.7 4.9-17.8 3.4l-10.1-1.3c0 0 0-11.4 0-22.8zm-542.7 164.8c17.1-1.7 34.2-3.3 34.2-3.3v-21.8c0 0-10.8 1-21.7 2-10.9 1.1-21.8 2.3-21.8 2.3 0 0 0-17 0-34 0-17 0-34.1 0-34.1l-24.8 2.8c0 0 0 5.6 0 14.1 0 8.4 0 19.6 0 30.8 0 11.3 0 22.5 0 30.9 0 8.4 0 14.1 0 14.1 0 0 17.1-2 34.1-3.8zm102.8-9.1q7.7-2.9 13.2-8.2 5.5-5.4 8.5-13.4 3-8.1 3-19c0 0 0-12.4 0-24.9 0-12.4 0-24.9 0-24.9l-25.4 1.4c0 0 0 12.6 0 25.3 0 12.6 0 25.2 0 25.2q0 9.6-4.5 14.4-4.4 4.7-12 5.2-7.6 0.5-12.1-3.8-4.5-4.4-4.5-14.2c0 0 0-12.5 0-24.9 0-12.5 0-25 0-25l-25.2 2c0 0 0 12.6 0 25.2 0 12.6 0 25.2 0 25.2q0 10.5 2.8 18 2.9 7.6 8.3 12.2 5.4 4.7 13.1 6.5 7.7 1.9 17.3 1.3 9.7-0.7 17.5-3.6zm96.2-2.6q6-1.6 10.8-4.4 4.9-2.8 8.6-6.5 3.9-3.8 7.1-8.2l-18.8-13.1q-2.1 2.4-4.2 4.5-2.1 2-4.5 3.5-2.4 1.5-5.3 2.4-2.9 0.8-6.4 0.8-4.7 0.2-8.6-1.6-3.9-1.7-6.8-4.8-2.8-3.2-4.4-7.5-1.7-4.4-1.7-9.4v-0.3q0-4.9 1.7-9.3 1.6-4.4 4.4-7.7 2.9-3.2 6.8-5.2 3.9-2 8.6-2.1 6.6-0.2 11.2 2.6 4.7 2.7 8.6 7.5l18.7-14.6q-2.9-4.2-6.7-7.6-3.8-3.4-8.5-5.8-4.7-2.5-10.4-3.7-5.6-1.3-12.6-1.1-10.3 0.2-19 4.1-8.7 3.8-14.9 10.4-6.3 6.6-10 15.3-3.5 8.7-3.5 18.4v0.3q0 10 3.6 18.4 3.7 8.3 9.9 14.3 6.2 6 14.7 9.3 8.6 3.1 18.2 2.9 7.5-0.2 13.4-1.8zm60.4-0.6c11.6 0.1 23.2 0.3 23.2 0.3q16.2 0.4 25.1-5.9 9-6.3 9-18v-0.2q0-9.2-4.9-14.4-4.8-5.2-13-8.1 6.1-2.4 10-7.1 3.9-4.7 3.9-12.5v-0.2q0-4.7-1.5-8.3-1.6-3.7-4.3-6.5-4-4-10.1-6.2-6-2.2-14.5-2.4c0 0-11.5-0.2-23.1-0.3-11.5-0.1-23.1-0.1-23.1-0.1 0 0 0 5.6 0 14.1 0 8.4 0 19.6 0 30.8 0 11.3 0 22.5 0 30.9 0 8.4 0 14 0 14 0 0 11.7 0.1 23.3 0.1zm1.1-69.7l16.2 0.1q5.6 0.1 8.4 2.2 2.9 2 2.9 5.8v0.2q0 4-3 5.8-3.1 1.9-8.8 1.8l-15.7-0.2zm0 33.2l19 0.3q6.3 0.1 9.3 2.3 2.9 2.3 2.9 6v0.2q0 4-3.1 6.1-3.1 2.1-8.9 2l-19.2-0.3zm86.6 38.9l6.4-15.7 34.7 1.9 6.6 16.5 26.7 1.9c0 0-2.4-5.8-5.9-14.6-3.6-8.7-8.4-20.4-13.2-32-4.8-11.6-9.6-23.3-13.1-32-3.6-8.7-6-14.5-6-14.5l-24.1-1.3c0 0-2.3 5.5-5.9 13.8-3.6 8.3-8.4 19.4-13.2 30.5-4.8 11.1-9.6 22.2-13.2 30.6-3.6 8.3-6 13.9-6 13.9zm23.9-59.7l10 26.1-20.2-1.1zm83.9 67.1c0 0 0-12.3 0-24.6 0-12.3 0-24.6 0-24.6 0 0 9.6 13.2 19.1 26.4 9.6 13.3 19.2 26.6 19.2 26.6l21.8 2.5c0 0 0-5.6 0-14 0-8.5 0-19.7 0-30.9 0-11.2 0-22.5 0-30.9 0-8.4 0-14 0-14l-24.6-2.8c0 0 0 11.9 0 23.7 0 11.9 0 23.8 0 23.8 0 0-9.3-12.9-18.5-25.7-9.2-12.7-18.4-25.4-18.4-25.4l-23.3-2c0 0 0 5.6 0 14 0 8.4 0 19.6 0 30.9 0 11.2 0 22.4 0 30.8 0 8.5 0 14.1 0 14.1zm-574-204.8c-8.4 17.5-19.3 40.5-24.3 51-5.1 10.6-9.6 19.7-10.2 20.4-0.6 0.7-1.1 0.5-1.4-0.6-0.3-1-1-1.7-1.6-1.6-0.6 0.1-3 3.1-5.4 6.6-2.3 3.6-13.8 20.5-25.5 37.6-11.6 17.1-21 31.4-20.9 31.6 0.2 0.3 1.4-0.5 2.8-1.7 1.4-1.2 14.9-12.5 30.1-25l27.6-22.6 14.8-1.9 14-30 23.9-3.3c5.3-9 8.5-14.4 10.6-17.9 2-3.4 3.7-6.5 3.7-6.8 0-0.3-5.8 0.1-12.8 0.9-7.9 0.9-12.8 1.1-12.8 0.5 0-0.6 3.6-8.6 7.9-17.8 4.4-9.2 8.2-16.6 8.5-16.5 0.3 0.1 10.2 18.4 22 40.7l21.5 40.6c23.6-2.1 27.3-2.1 27.6-1.2 0.2 0.7 0.9 0 1.5-1.6 1.1-2.7-0.9-7-27.2-56.6-15.7-29.4-29.1-54.8-30-56.6l-1.6-3.1-27.7 3.1z"/>
</svg>