<svg width="91" height="115" viewBox="0 0 91 115" fill="none" xmlns="http://www.w3.org/2000/svg">
<path d="M45.3999 12C63.6391 12 78.3999 26.6208 78.3999 44.626C78.3998 54.995 73.1769 66.6343 66.606 77.1055C60.074 87.5144 52.3966 96.479 47.8618 101.438C46.5036 102.921 44.2952 102.921 42.937 101.438C38.4022 96.4789 30.7256 87.5141 24.1938 77.1055C17.6229 66.6343 12.4 54.995 12.3999 44.626C12.3999 26.6208 27.1607 12 45.3999 12Z" fill="#475569" stroke="white" stroke-width="4"/>
<path d="M31.4771 33L29.1682 38.4672H62.0608L62.0387 33.0001H40.6721V37.4797H39.4573V33.0001H38.1064V37.4797H36.892V33.0001H35.4801V37.4797H34.2653V33.0001L31.4771 33ZM62.8864 34.2858V37.5614H64.3999V34.2858H62.8864ZM29.6573 39.6756L31.3229 42.2548L27.3999 56.422L35.6346 57L37.3791 49.1052H46.7524L47.94 42.6399L62.0762 42.3279L62.0657 39.6756H29.6572L29.6573 39.6756ZM46.395 42.6741L45.4904 47.5998H37.7116L38.7628 42.8426L39.7776 42.8202L39.5974 45.6802L40.7525 46.7739L40.8337 44.063L42.8333 42.7527L46.3951 42.6741H46.395Z" fill="white"/>
</svg>
