<svg width="91" height="116" viewBox="0 0 91 116" fill="none" xmlns="http://www.w3.org/2000/svg">
<path d="M45.8 12.8502C64.0393 12.8502 78.8 27.471 78.8 45.4762C78.8 55.8452 73.5771 67.4846 67.0061 77.9557C60.4741 88.3646 52.7968 97.3293 48.262 102.288C46.9037 103.772 44.6954 103.772 43.3372 102.288C38.8023 97.3292 31.1257 88.3643 24.594 77.9557C18.023 67.4846 12.8001 55.8452 12.8 45.4762C12.8 27.471 27.5608 12.8502 45.8 12.8502Z" fill="#6366F1" stroke="white" stroke-width="4"/>
<path fill-rule="evenodd" clip-rule="evenodd" d="M49.8931 30.8502L29.8 40.3048L32.7768 54.1229H36.4977V43.9411L39.4745 54.1229H43.1954V41.7593L46.1721 54.1229H50.6373L51.3814 39.5775H52.1256L53.614 54.1229H59.5675L61.8001 33.7593L49.8931 30.8502ZM44.6838 56.3048L58.8233 57.032L58.0791 62.8502L46.1721 59.9411L44.6838 56.3048Z" fill="white"/>
</svg>
