<svg width="91" height="115" viewBox="0 0 91 115" fill="none" xmlns="http://www.w3.org/2000/svg">
<path d="M45.8 12C64.0393 12 78.8 26.6208 78.8 44.626C78.8 54.995 73.5771 66.6343 67.0061 77.1055C60.4741 87.5144 52.7968 96.479 48.262 101.438C46.9037 102.921 44.6954 102.921 43.3372 101.438C38.8023 96.4789 31.1257 87.5141 24.594 77.1055C18.023 66.6343 12.8001 54.995 12.8 44.626C12.8 26.6208 27.5608 12 45.8 12Z" fill="#DD2D2D" stroke="white" stroke-width="4"/>
<path d="M61.7904 42.975C62.853 42.975 63.7906 42.1 63.7906 40.9688C63.8531 40.4062 63.6031 39.9062 63.1031 39.4688L47.1454 25.4375C46.7704 25.125 46.2704 25 45.8328 25C45.3953 25 44.8953 25.0625 44.4577 25.5L28.4251 39.4688C27.9876 39.9062 27.8 40.4062 27.8 40.9688C27.8 42.0938 28.6751 42.975 29.8002 42.975H31.8004V53C31.8004 55.2062 33.5943 57 35.8007 57H42.2013L40.2449 53.7375C39.9886 53.3125 40.0823 52.7687 40.4636 52.4562L45.8016 48L42.0388 42.825C41.3575 41.8875 42.5513 40.7313 43.4639 41.45L50.8333 47.2375C51.3333 47.6312 51.3458 48.3875 50.8583 48.7938L45.8016 53L48.2018 57H55.8337C58.0526 57 59.8465 55.2 59.834 52.9813L59.7903 42.9688H61.7904V42.975Z" fill="white"/>
</svg>
