<svg width="91" height="116" viewBox="0 0 91 116" fill="none" xmlns="http://www.w3.org/2000/svg">
<path d="M45.3999 12.7005C63.6391 12.7005 78.3999 27.3213 78.3999 45.3265C78.3998 55.6955 73.1769 67.3348 66.606 77.806C60.074 88.2149 52.3966 97.1795 47.8618 102.138C46.5036 103.622 44.2952 103.622 42.937 102.138C38.4022 97.1794 30.7256 88.2146 24.1938 77.806C17.6229 67.3348 12.4 55.6955 12.3999 45.3265C12.3999 27.3213 27.1607 12.7005 45.3999 12.7005Z" fill="#FB923C" stroke="white" stroke-width="4"/>
<path d="M45.6411 47.1943C45.6411 47.1943 42.157 49.9973 42.157 52.2631C42.157 53.2776 43.6503 54.2914 45.6411 54.2914C47.6304 54.2914 49.1237 53.2776 49.1237 52.2631C49.1237 49.9159 45.6411 47.1943 45.6411 47.1943ZM58.3426 42.0708C58.5442 39.6026 59.2599 37.3368 60.5199 35.2603L55.6822 30.4205C54.1544 31.7366 52.4134 32.4653 50.4406 32.5942C48.6334 32.7576 46.9205 32.4142 45.3099 31.561C43.6524 32.3861 41.946 32.731 40.1669 32.5942C38.3273 32.4293 36.6663 31.777 35.1795 30.6206L30.3281 35.4583C31.5212 37.565 32.1857 39.769 32.316 42.0708C32.378 43.1306 32.0756 44.5886 31.3973 46.475C31.0892 47.3662 30.8201 48.2704 30.5909 49.1851C30.421 49.9375 30.3152 50.5495 30.2806 51.0074C30.2554 53.0162 30.8192 54.8314 31.9748 56.4434C32.8776 57.6206 34.3666 58.921 36.4344 60.3422C38.6974 61.4942 40.4477 62.2416 41.6739 62.5613L42.6905 63.0336C43.0109 63.1862 43.3536 63.336 43.7108 63.4994C44.4819 63.961 45.0233 64.4621 45.3099 64.9798C45.6591 64.4203 46.2128 63.9314 46.95 63.4994C47.3912 63.3095 47.8286 63.1107 48.2619 62.9033L49.0294 62.5606C49.2915 62.4302 49.6364 62.2812 50.0511 62.117C50.5668 61.913 51.0852 61.7159 51.6063 61.5259C52.8008 61.1033 53.672 60.703 54.2235 60.3415C56.2294 58.9202 57.696 57.6415 58.6284 56.4967C59.8258 54.8782 60.4068 53.0558 60.3802 51.0067C60.3089 50.0894 59.9208 48.6214 59.216 46.6219C58.5442 44.6743 58.2461 43.1623 58.3426 42.0708ZM45.6411 56.3189C41.244 56.3189 37.1811 52.6872 37.1811 48.2081C37.1811 45.1661 39.5067 42.2926 40.1669 41.111L42.157 44.153L45.6411 39.0842L49.1237 44.153L51.1167 41.111C51.7748 42.2926 54.1025 45.1661 54.1025 48.2081C54.1025 52.6872 50.0388 56.3189 45.6411 56.3189Z" fill="white"/>
</svg>
