<svg width="90" height="116" viewBox="0 0 90 116" fill="none" xmlns="http://www.w3.org/2000/svg">
<path d="M45 12.8502C63.2392 12.8502 78 27.471 78 45.4762C77.9999 55.8452 72.777 67.4846 66.2061 77.9557C59.6741 88.3646 51.9967 97.3293 47.4619 102.288C46.1037 103.772 43.8953 103.772 42.5371 102.288C38.0022 97.3292 30.3257 88.3643 23.7939 77.9557C17.223 67.4846 12.0001 55.8452 12 45.4762C12 27.471 26.7608 12.8502 45 12.8502Z" fill="#F97316" stroke="white" stroke-width="4"/>
<path d="M40.9563 29.1893C41.4438 28.7331 42.2 28.7393 42.6875 29.1955C44.4125 30.8142 46.0313 32.5579 47.5438 34.4453C48.2313 33.5453 49.0125 32.5641 49.8563 31.7642C50.35 31.3017 51.1125 31.3017 51.6063 31.7704C53.7688 33.8328 55.6 36.5577 56.8875 39.145C58.1563 41.6949 59 44.301 59 46.1384C59 54.1131 52.7625 60.8502 45 60.8502C37.15 60.8502 31 54.1068 31 46.1322C31 43.7323 32.1125 40.8012 33.8375 37.9014C35.5813 34.9577 38.0438 31.8891 40.9563 29.1893ZM45.1062 54.8505C46.6875 54.8505 48.0875 54.413 49.4062 53.5381C52.0375 51.7007 52.7438 48.0259 51.1625 45.1385C50.8813 44.576 50.1625 44.5385 49.7563 45.0135L48.1812 46.8447C47.7687 47.3196 47.025 47.3071 46.6375 46.8134C45.6062 45.501 43.7625 43.1573 42.7125 41.8262C42.3187 41.3262 41.5687 41.3199 41.1687 41.8199C39.0562 44.476 37.9938 46.1509 37.9938 48.0321C38 52.3131 41.1625 54.8505 45.1062 54.8505Z" fill="white"/>
</svg>
