<svg width="91" height="116" viewBox="0 0 91 116" fill="none" xmlns="http://www.w3.org/2000/svg">
<path d="M45.6 12.8502C63.8392 12.8502 78.6 27.471 78.6 45.4762C78.5999 55.8452 73.377 67.4846 66.806 77.9557C60.2741 88.3646 52.5967 97.3293 48.0619 102.288C46.7037 103.772 44.4953 103.772 43.1371 102.288C38.6022 97.3292 30.9257 88.3643 24.3939 77.9557C17.823 67.4846 12.6 55.8452 12.6 45.4762C12.6 27.471 27.3608 12.8502 45.6 12.8502Z" fill="#3B82F6" stroke="white" stroke-width="4"/>
<path d="M45.4435 34.2208C46.1374 33.7271 47.0626 33.7271 47.7565 34.2208C49.163 35.1894 50.8821 35.8517 52.6013 35.8517C54.2829 35.8517 56.0645 35.1769 57.4398 34.2208C58.1837 33.6896 59.1964 33.7334 59.8903 34.327C60.7905 35.0706 61.922 35.6393 63.0535 35.9017C64.1287 36.1517 64.7976 37.2265 64.5476 38.3013C64.2975 39.3761 63.2223 40.0447 62.1471 39.7948C60.6155 39.4386 59.3402 38.7637 58.5088 38.2326C56.6959 39.2074 54.6642 39.851 52.6013 39.851C50.6071 39.851 48.813 39.2324 47.5752 38.67C47.2126 38.5013 46.8813 38.3388 46.6 38.1888C46.3187 38.3388 45.9936 38.5075 45.6248 38.67C44.387 39.2324 42.5929 39.851 40.5987 39.851C38.5357 39.851 36.5041 39.2074 34.6912 38.2388C33.8535 38.7637 32.5845 39.4448 31.0529 39.801C29.9777 40.051 28.9024 39.3824 28.6524 38.3076C28.4023 37.2327 29.0712 36.1579 30.1464 35.908C31.2717 35.6393 32.4094 35.0706 33.3034 34.327C33.9973 33.7334 35.01 33.6959 35.7539 34.2208C37.1417 35.1769 38.9171 35.8517 40.5987 35.8517C42.3178 35.8517 44.0369 35.1894 45.4435 34.2208ZM47.7565 52.2176C49.163 53.1862 50.8821 53.8485 52.6013 53.8485C54.2829 53.8485 56.0645 53.1737 57.4398 52.2176C58.1837 51.6864 59.1964 51.7302 59.8903 52.3238C60.7905 53.0674 61.922 53.6361 63.0535 53.8985C64.1287 54.1485 64.7976 55.2233 64.5476 56.2981C64.2975 57.3729 63.2223 58.0415 62.1471 57.7916C60.6155 57.4354 59.3402 56.7605 58.5088 56.2294C56.6959 57.2042 54.6642 57.8478 52.6013 57.8478C50.6071 57.8478 48.813 57.2292 47.5752 56.6668C47.2126 56.4981 46.8813 56.3356 46.6 56.1856C46.3187 56.3356 45.9936 56.5043 45.6248 56.6668C44.387 57.2292 42.5929 57.8478 40.5987 57.8478C38.5357 57.8478 36.5041 57.2042 34.6912 56.2356C33.8535 56.7605 32.5845 57.4417 31.0529 57.7978C29.9777 58.0478 28.9024 57.3792 28.6524 56.3044C28.4023 55.2295 29.0712 54.1547 30.1464 53.9048C31.2779 53.6423 32.4094 53.0737 33.3096 52.3301C34.0035 51.7427 35.0162 51.6989 35.7602 52.2238C37.1417 53.1737 38.9171 53.8485 40.5987 53.8485C42.3178 53.8485 44.0369 53.1862 45.4435 52.2176C46.1374 51.7239 47.0626 51.7239 47.7565 52.2176ZM47.7565 43.2192C49.163 44.1878 50.8821 44.8501 52.6013 44.8501C54.2829 44.8501 56.0645 44.1753 57.4398 43.2192C58.1837 42.688 59.1964 42.7318 59.8903 43.3254C60.7905 44.069 61.922 44.6377 63.0535 44.9001C64.1287 45.1501 64.7976 46.2249 64.5476 47.2997C64.2975 48.3745 63.2223 49.0431 62.1471 48.7932C60.6155 48.437 59.3402 47.7621 58.5088 47.231C56.6959 48.2058 54.6642 48.8494 52.6013 48.8494C50.6071 48.8494 48.813 48.2308 47.5752 47.6684C47.2126 47.4997 46.8813 47.3372 46.6 47.1872C46.3187 47.3372 45.9936 47.5059 45.6248 47.6684C44.387 48.2308 42.5929 48.8494 40.5987 48.8494C38.5357 48.8494 36.5041 48.2058 34.6912 47.2372C33.8535 47.7621 32.5845 48.4433 31.0529 48.7994C29.9777 49.0494 28.9024 48.3808 28.6524 47.306C28.4023 46.2311 29.0712 45.1563 30.1464 44.9064C31.2779 44.6439 32.4094 44.0753 33.3096 43.3317C34.0035 42.738 35.0162 42.7005 35.7602 43.2254C37.1417 44.1753 38.9171 44.8501 40.5987 44.8501C42.3178 44.8501 44.0369 44.1878 45.4435 43.2192C46.1374 42.7255 47.0626 42.7255 47.7565 43.2192Z" fill="white"/>
</svg>
