<svg width="91" height="116" viewBox="0 0 91 116" fill="none" xmlns="http://www.w3.org/2000/svg">
<path d="M45.2 12.7005C63.4392 12.7005 78.2 27.3213 78.2 45.3265C78.1999 55.6955 72.977 67.3348 66.406 77.806C59.874 88.2149 52.1967 97.1795 47.6619 102.138C46.3036 103.622 44.0953 103.622 42.7371 102.138C38.2022 97.1794 30.5257 88.2146 23.9939 77.806C17.4229 67.3348 12.2 55.6955 12.2 45.3265C12.2 27.3213 26.9607 12.7005 45.2 12.7005Z" fill="#06B6D4" stroke="white" stroke-width="4"/>
<path d="M63.2 36.7005C63.7304 36.7005 64.2391 36.9112 64.6142 37.2863C64.9892 37.6614 65.2 38.1701 65.2 38.7005C65.2 39.2309 64.9892 39.7396 64.6142 40.1147C64.2391 40.4898 63.7304 40.7005 63.2 40.7005V60.7005C63.7304 60.7005 64.2391 60.9112 64.6142 61.2863C64.9892 61.6614 65.2 62.1701 65.2 62.7005C65.2 63.2309 64.9892 63.7396 64.6142 64.1147C64.2391 64.4898 63.7304 64.7005 63.2 64.7005H27.2C26.6695 64.7005 26.1608 64.4898 25.7857 64.1147C25.4107 63.7396 25.2 63.2309 25.2 62.7005C25.2 62.1701 25.4107 61.6614 25.7857 61.2863C26.1608 60.9112 26.6695 60.7005 27.2 60.7005V40.7005C26.6695 40.7005 26.1608 40.4898 25.7857 40.1147C25.4107 39.7396 25.2 39.2309 25.2 38.7005C25.2 38.1701 25.4107 37.6614 25.7857 37.2863C26.1608 36.9112 26.6695 36.7005 27.2 36.7005H63.2ZM35.2 44.7005C34.6695 44.7005 34.1608 44.9112 33.7857 45.2863C33.4107 45.6614 33.2 46.1701 33.2 46.7005V60.7005H37.2V46.7005C37.2 46.1701 36.9892 45.6614 36.6142 45.2863C36.2391 44.9112 35.7304 44.7005 35.2 44.7005ZM45.2 44.7005C44.6695 44.7005 44.1608 44.9112 43.7857 45.2863C43.4107 45.6614 43.2 46.1701 43.2 46.7005V60.7005H47.2V46.7005C47.2 46.1701 46.9892 45.6614 46.6142 45.2863C46.2391 44.9112 45.7304 44.7005 45.2 44.7005ZM55.2 44.7005C54.6695 44.7005 54.1608 44.9112 53.7857 45.2863C53.4107 45.6614 53.2 46.1701 53.2 46.7005V60.7005H57.2V46.7005C57.2 46.1701 56.9892 45.6614 56.6142 45.2863C56.2391 44.9112 55.7304 44.7005 55.2 44.7005ZM57.2 30.7005C57.7304 30.7005 58.2391 30.9112 58.6142 31.2863C58.9892 31.6614 59.2 32.1701 59.2 32.7005C59.2 33.2309 58.9892 33.7396 58.6142 34.1147C58.2391 34.4898 57.7304 34.7005 57.2 34.7005H33.2C32.6695 34.7005 32.1608 34.4898 31.7857 34.1147C31.4107 33.7396 31.2 33.2309 31.2 32.7005C31.2 32.1701 31.4107 31.6614 31.7857 31.2863C32.1608 30.9112 32.6695 30.7005 33.2 30.7005H57.2Z" fill="white"/>
</svg>
