<svg width="91" height="116" viewBox="0 0 91 116" fill="none" xmlns="http://www.w3.org/2000/svg">
<path d="M45.3999 12.8502C63.6391 12.8502 78.3999 27.471 78.3999 45.4762C78.3998 55.8452 73.1769 67.4846 66.606 77.9557C60.074 88.3646 52.3966 97.3293 47.8618 102.288C46.5036 103.772 44.2952 103.772 42.937 102.288C38.4022 97.3292 30.7256 88.3643 24.1938 77.9557C17.6229 67.4846 12.4 55.8452 12.3999 45.4762C12.3999 27.471 27.1607 12.8502 45.3999 12.8502Z" fill="#059669" stroke="white" stroke-width="4"/>
<path d="M55.9193 50.0507C56.2185 50.4855 56.6475 50.8124 57.1438 50.9837C57.64 51.155 58.1775 51.1618 58.6778 51.0029C59.1781 50.8441 59.615 50.5281 59.9248 50.1009C60.2346 49.6738 60.4011 49.1578 60.3999 48.6285C60.4011 48.0991 60.2346 47.5831 59.9248 47.156C59.615 46.7288 59.1781 46.4128 58.6778 46.254C58.1775 46.0952 57.64 46.1019 57.1438 46.2732C56.6475 46.4445 56.2185 46.7714 55.9193 47.2062H54.7639C54.7639 44.9732 54.0594 42.9394 52.7913 41.2469L54.6794 39.3411C55.4684 39.4833 56.2715 39.2558 56.8774 38.6726C57.8214 37.6913 57.8214 36.1126 56.8774 35.117C55.9052 34.1641 54.3412 34.1641 53.3549 35.117C52.7772 35.7286 52.5518 36.5393 52.6927 37.3357L50.8046 39.2415C49.5084 38.2602 47.9866 37.606 46.3099 37.3642V35.373C46.7407 35.071 47.0645 34.6379 47.2342 34.137C47.4039 33.6361 47.4106 33.0936 47.2533 32.5885C47.096 32.0835 46.7829 31.6425 46.3597 31.3298C45.9365 31.0171 45.4254 30.849 44.9009 30.8502C44.3765 30.849 43.8654 31.0171 43.4422 31.3298C43.019 31.6425 42.7059 32.0835 42.5486 32.5885C42.3913 33.0936 42.3979 33.6361 42.5677 34.137C42.7374 34.6379 43.0612 35.071 43.492 35.373V37.3642C42.2239 37.5491 41.0403 37.9615 39.9695 38.5873L38.4055 36.3259C38.6732 35.5863 38.6027 34.733 38.1237 34.0503C37.938 33.782 37.7016 33.5533 37.4282 33.3773C37.1548 33.2013 36.8497 33.0815 36.5304 33.0247C36.211 32.9679 35.8837 32.9752 35.5672 33.0463C35.2507 33.1173 34.9511 33.2507 34.6857 33.4387C33.5726 34.221 33.2908 35.7712 34.0799 36.8948C34.5589 37.5917 35.3198 37.9615 36.0947 37.9615L37.7573 40.3509C37.1515 40.9625 36.6724 41.6452 36.2638 42.399C35.8196 42.2238 35.3349 42.1816 34.8675 42.2775C34.4002 42.3733 33.9702 42.6032 33.629 42.9394C32.685 43.935 32.685 45.4995 33.629 46.4951C34.0376 46.8791 34.5307 47.1066 35.038 47.2062C35.038 47.9742 35.1366 48.7138 35.2916 49.4249L33.4458 49.9227C32.854 49.4249 32.0368 49.2116 31.2196 49.4249C30.5881 49.5984 30.0507 50.0181 29.7257 50.5915C29.4007 51.165 29.3146 51.8453 29.4865 52.4828C29.6584 53.1202 30.0742 53.6627 30.6423 53.9908C31.2104 54.3188 31.8843 54.4057 32.5159 54.2321C33.319 54.0046 33.9249 53.4072 34.1785 52.6677L36.3061 52.0845C36.9401 53.2081 37.7855 54.2037 38.7718 55.0286L37.2219 57.8731C36.447 57.9869 35.7425 58.4278 35.3339 59.1816C35.1803 59.4692 35.0843 59.7846 35.0515 60.1096C35.0187 60.4347 35.0496 60.7631 35.1425 61.0761C35.2354 61.3891 35.3884 61.6806 35.5929 61.9339C35.7974 62.1872 36.0493 62.3973 36.3343 62.5524C36.6192 62.7074 36.9316 62.8042 37.2536 62.8374C37.5757 62.8705 37.901 62.8393 38.2111 62.7456C38.5212 62.6518 38.8099 62.4973 39.0609 62.2909C39.3118 62.0845 39.52 61.8302 39.6736 61.5426C40.0681 60.803 40.054 59.9496 39.7018 59.2527L41.2094 56.4509C42.3507 56.906 43.5906 57.162 44.9009 57.162H45.1546C44.9714 57.5318 44.9009 57.9585 44.9009 58.4136C45.0137 59.7932 46.1972 60.8172 47.5499 60.7176C48.9025 60.6181 49.9311 59.4092 49.8324 58.0438C49.7761 57.3327 49.4238 56.7069 48.9166 56.2944C49.5788 55.9957 50.2129 55.6117 50.8046 55.1708L54.1017 58.4989C53.9608 59.2954 54.1862 60.1061 54.7639 60.7176C55.7502 61.6706 57.3001 61.6706 58.2864 60.7176C59.2727 59.7647 59.2304 58.1576 58.2864 57.162C57.6805 56.5789 56.8774 56.3513 56.0884 56.4935L52.7913 53.1655C53.4817 52.241 54.0171 51.1885 54.3553 50.0507H55.9193ZM42.7875 47.2062C41.618 47.2062 40.674 46.2533 40.674 45.0728C40.674 43.8923 41.618 42.9394 42.7875 42.9394C43.9569 42.9394 44.9009 43.8923 44.9009 45.0728C44.9009 46.2533 43.9569 47.2062 42.7875 47.2062ZM47.7189 51.473C46.944 51.473 46.3099 50.833 46.3099 50.0507C46.3099 49.2685 46.944 48.6285 47.7189 48.6285C48.4939 48.6285 49.1279 49.2685 49.1279 50.0507C49.1279 50.833 48.4939 51.473 47.7189 51.473Z" fill="white"/>
</svg>
