<svg width="91" height="115" viewBox="0 0 91 115" fill="none" xmlns="http://www.w3.org/2000/svg">
<path d="M45.2 12C63.4392 12 78.2 26.6208 78.2 44.626C78.1999 54.995 72.977 66.6343 66.406 77.1055C59.874 87.5144 52.1967 96.479 47.6619 101.438C46.3036 102.921 44.0953 102.921 42.7371 101.438C38.2022 96.4789 30.5257 87.5141 23.9939 77.1055C17.4229 66.6343 12.2 54.995 12.2 44.626C12.2 26.6208 26.9607 12 45.2 12Z" fill="#F59E0B" stroke="white" stroke-width="4"/>
<path d="M44.7 25C45.6033 25 46.4416 25.4571 46.9257 26.2143L62.5785 50.8857C62.9832 51.5214 63.2 52.2571 63.2 53.0071C63.2 55.2143 61.3933 57 59.1603 57H30.2396C28.0066 57 26.2 55.2143 26.2 53.0071C26.2 52.2571 26.4167 51.5214 26.8214 50.8857L42.4742 26.2143C42.9511 25.4571 43.7966 25 44.7 25ZM49.3972 38.7143L44.7 31.3143L38.9837 40.3214L40.3062 42.0643C40.7687 42.6714 41.6937 42.6714 42.1562 42.0643L44.0062 39.6286C44.4398 39.05 45.1263 38.7143 45.8562 38.7143H49.3972Z" fill="white"/>
</svg>
