<svg width="91" height="115" viewBox="0 0 91 115" fill="none" xmlns="http://www.w3.org/2000/svg">
<path d="M45.6 12C63.8392 12 78.6 26.6208 78.6 44.626C78.5999 54.995 73.377 66.6343 66.806 77.1055C60.2741 87.5144 52.5967 96.479 48.0619 101.438C46.7037 102.921 44.4953 102.921 43.1371 101.438C38.6022 96.4789 30.9257 87.5141 24.3939 77.1055C17.823 66.6343 12.6 54.995 12.6 44.626C12.6 26.6208 27.3608 12 45.6 12Z" fill="#EC4899" stroke="white" stroke-width="4"/>
<path d="M62.5192 41.711L60.5359 36.7129C60.3675 36.2898 60.077 35.9274 59.7018 35.6728C59.3267 35.4182 58.8844 35.283 58.4321 35.2849H53.5333V34.1424C53.5333 33.8394 53.4139 33.5489 53.2013 33.3346C52.9888 33.1204 52.7005 33 52.4 33H30.8666C30.2655 33 29.6889 33.2407 29.2639 33.6692C28.8388 34.0977 28.6 34.6789 28.6 35.2849V51.2789C28.6 51.8849 28.8388 52.466 29.2639 52.8945C29.6889 53.323 30.2655 53.5637 30.8666 53.5637H33.275C33.5246 54.5467 34.0918 55.418 34.8869 56.0401C35.6821 56.6623 36.66 57 37.6666 57C38.6732 57 39.6512 56.6623 40.4463 56.0401C41.2415 55.418 41.8086 54.5467 42.0583 53.5637H49.1416C49.3913 54.5467 49.9584 55.418 50.7536 56.0401C51.5487 56.6623 52.5267 57 53.5333 57C54.5399 57 55.5178 56.6623 56.313 56.0401C57.1082 55.418 57.6753 54.5467 57.925 53.5637H60.3333C60.9344 53.5637 61.511 53.323 61.9361 52.8945C62.3611 52.466 62.6 51.8849 62.6 51.2789V42.1394C62.6009 41.9927 62.5735 41.8472 62.5192 41.711ZM37.6666 54.7062C37.2183 54.7062 36.7801 54.5722 36.4073 54.3211C36.0346 54.07 35.7441 53.7132 35.5725 53.2957C35.401 52.8782 35.3561 52.4188 35.4435 51.9756C35.531 51.5323 35.7469 51.1252 36.0639 50.8057C36.3809 50.4861 36.7847 50.2685 37.2244 50.1804C37.6641 50.0922 38.1199 50.1374 38.5341 50.3104C38.9482 50.4833 39.3022 50.7762 39.5513 51.1519C39.8004 51.5277 39.9333 51.9694 39.9333 52.4213C39.9333 53.0273 39.6945 53.6085 39.2694 54.037C38.8443 54.4655 38.2678 54.7062 37.6666 54.7062ZM45.6 43.2819H43.3333V45.5667C43.3333 45.8697 43.2139 46.1603 43.0014 46.3746C42.7888 46.5888 42.5005 46.7092 42.2 46.7092C41.8994 46.7092 41.6111 46.5888 41.3986 46.3746C41.186 46.1603 41.0666 45.8697 41.0666 45.5667V43.2819H38.8C38.4994 43.2819 38.2111 43.1615 37.9986 42.9473C37.786 42.733 37.6666 42.4424 37.6666 42.1394C37.6666 41.8365 37.786 41.5459 37.9986 41.3316C38.2111 41.1174 38.4994 40.997 38.8 40.997H41.0666V38.7122C41.0666 38.4092 41.186 38.1186 41.3986 37.9043C41.6111 37.6901 41.8994 37.5697 42.2 37.5697C42.5005 37.5697 42.7888 37.6901 43.0014 37.9043C43.2139 38.1186 43.3333 38.4092 43.3333 38.7122V40.997H45.6C45.9005 40.997 46.1888 41.1174 46.4014 41.3316C46.6139 41.5459 46.7333 41.8365 46.7333 42.1394C46.7333 42.4424 46.6139 42.733 46.4014 42.9473C46.1888 43.1615 45.9005 43.2819 45.6 43.2819ZM53.5333 54.7062C53.085 54.7062 52.6467 54.5722 52.274 54.3211C51.9012 54.07 51.6107 53.7132 51.4392 53.2957C51.2676 52.8782 51.2227 52.4188 51.3102 51.9756C51.3976 51.5323 51.6135 51.1252 51.9305 50.8057C52.2475 50.4861 52.6514 50.2685 53.0911 50.1804C53.5308 50.0922 53.9865 50.1374 54.4007 50.3104C54.8149 50.4833 55.1689 50.7762 55.418 51.1519C55.667 51.5277 55.8 51.9694 55.8 52.4213C55.8 53.0273 55.5611 53.6085 55.1361 54.037C54.711 54.4655 54.1344 54.7062 53.5333 54.7062ZM53.5333 40.997V37.5697H58.4321L59.7921 40.997H53.5333Z" fill="white"/>
</svg>
