<svg width="90" height="115" viewBox="0 0 90 115" fill="none" xmlns="http://www.w3.org/2000/svg">
<path d="M45 12C63.2392 12 78 26.6208 78 44.626C77.9999 54.995 72.777 66.6343 66.2061 77.1055C59.6741 87.5144 51.9967 96.479 47.4619 101.438C46.1037 102.921 43.8953 102.921 42.5371 101.438C38.0022 96.4789 30.3257 87.5141 23.7939 77.1055C17.223 66.6343 12.0001 54.995 12 44.626C12 26.6208 26.7608 12 45 12Z" fill="#3B82F6" stroke="white" stroke-width="4"/>
<path d="M50 50.18L51.26 55.64C51.46 56.5 50.52 57.18 49.76 56.72L45 53.84L40.22 56.72C40.0515 56.8222 39.8567 56.8726 39.6597 56.8648C39.4628 56.8571 39.2725 56.7915 39.1126 56.6764C38.9527 56.5612 38.8302 56.4016 38.7603 56.2173C38.6905 56.033 38.6765 55.8322 38.72 55.64L40 50.2L35.8 46.58C35.6491 46.4524 35.5394 46.283 35.4847 46.0931C35.43 45.9033 35.4328 45.7014 35.4927 45.5131C35.5526 45.3248 35.6669 45.1585 35.8213 45.0351C35.9757 44.9118 36.1631 44.8369 36.36 44.82L41.92 44.34L44.08 39.22C44.42 38.4 45.58 38.4 45.92 39.22L48.08 44.32L53.64 44.8C53.8369 44.8169 54.0243 44.8918 54.1787 45.0151C54.3331 45.1385 54.4474 45.3048 54.5073 45.4931C54.5672 45.6814 54.57 45.8833 54.5153 46.0731C54.4606 46.263 54.3509 46.4324 54.2 46.56L50 50.18ZM29.38 33.94C27.94 34.58 27 36.02 27 37.6V47C27 58.1 34.68 68.48 45 71C55.32 68.48 63 58.1 63 47V37.6C63 36.02 62.06 34.58 60.62 33.94L46.62 27.72C45.58 27.26 44.4 27.26 43.38 27.72L29.38 33.94Z" fill="white"/>
</svg>
