<svg width="90" height="115" viewBox="0 0 90 115" fill="none" xmlns="http://www.w3.org/2000/svg">
<path d="M45 12C63.2392 12 78 26.6208 78 44.626C77.9999 54.995 72.777 66.6343 66.2061 77.1055C59.6741 87.5144 51.9967 96.479 47.4619 101.438C46.1037 102.921 43.8953 102.921 42.5371 101.438C38.0022 96.4789 30.3257 87.5141 23.7939 77.1055C17.223 66.6343 12.0001 54.995 12 44.626C12 26.6208 26.7608 12 45 12Z" fill="#64748B" stroke="white" stroke-width="4"/>
<path d="M37.45 34.1L35.8187 39.4286H54.1812L52.55 34.1C52.2687 33.1857 51.5125 32.5714 50.6625 32.5714H39.3375C38.4875 32.5714 37.7312 33.1857 37.45 34.1ZM31.475 39.7714L33.675 32.5929C34.5188 29.8429 36.7875 28 39.3375 28H50.6625C53.2125 28 55.4813 29.8429 56.325 32.5929L58.525 39.7714C59.975 40.4571 61 42.0929 61 44V54.2857V57.7143C61 58.9786 60.1063 60 59 60H57C55.8937 60 55 58.9786 55 57.7143V54.2857H35V57.7143C35 58.9786 34.1063 60 33 60H31C29.8937 60 29 58.9786 29 57.7143V54.2857V44C29 42.0929 30.025 40.4571 31.475 39.7714ZM37 46.2857C37 45.6795 36.7893 45.0981 36.4142 44.6695C36.0391 44.2408 35.5304 44 35 44C34.4696 44 33.9609 44.2408 33.5858 44.6695C33.2107 45.0981 33 45.6795 33 46.2857C33 46.8919 33.2107 47.4733 33.5858 47.902C33.9609 48.3306 34.4696 48.5714 35 48.5714C35.5304 48.5714 36.0391 48.3306 36.4142 47.902C36.7893 47.4733 37 46.8919 37 46.2857ZM55 48.5714C55.5304 48.5714 56.0391 48.3306 56.4142 47.902C56.7893 47.4733 57 46.8919 57 46.2857C57 45.6795 56.7893 45.0981 56.4142 44.6695C56.0391 44.2408 55.5304 44 55 44C54.4696 44 53.9609 44.2408 53.5858 44.6695C53.2107 45.0981 53 45.6795 53 46.2857C53 46.8919 53.2107 47.4733 53.5858 47.902C53.9609 48.3306 54.4696 48.5714 55 48.5714Z" fill="white"/>
</svg>
