<svg width="91" height="116" viewBox="0 0 91 116" fill="none" xmlns="http://www.w3.org/2000/svg">
<path d="M45.2 12.8502C63.4392 12.8502 78.2 27.471 78.2 45.4762C78.1999 55.8452 72.977 67.4846 66.406 77.9557C59.874 88.3646 52.1967 97.3293 47.6619 102.288C46.3036 103.772 44.0953 103.772 42.7371 102.288C38.2022 97.3292 30.5257 88.3643 23.9939 77.9557C17.4229 67.4846 12.2 55.8452 12.2 45.4762C12.2 27.471 26.9607 12.8502 45.2 12.8502Z" fill="#78350F" stroke="white" stroke-width="4"/>
<path d="M39.196 34.8485C36.9907 34.8485 35.1976 33.0551 35.1976 30.8492C35.1976 28.6434 36.9907 26.85 39.196 26.85C40.1769 26.85 41.0703 27.2 41.77 27.7873C42.4698 26.6251 43.738 25.8502 45.1937 25.8502C46.6494 25.8502 47.9176 26.6251 48.6174 27.7873C49.3171 27.2 50.2105 26.85 51.1914 26.85C53.3967 26.85 55.1898 28.6434 55.1898 30.8492C55.1898 33.0551 53.3967 34.8485 51.1914 34.8485C50.273 34.8485 49.4233 34.536 48.7486 34.0174L46.7493 37.0168C46.3995 37.5354 45.8185 37.8479 45.1937 37.8479C44.5689 37.8479 43.9879 37.5354 43.6381 37.0168L41.6388 34.0174C40.9641 34.536 40.1144 34.8485 39.196 34.8485ZM38.1964 47.8459L41.2203 46.3337C41.8575 46.015 42.5697 45.8463 43.282 45.8463C44.5065 45.8463 45.681 46.3337 46.5432 47.1961L48.5736 49.2269C48.9672 49.6206 49.5045 49.8455 50.0606 49.8455C50.7665 49.8455 51.4225 49.4956 51.8099 48.9082L52.4159 47.9959L48.7361 43.853C48.1675 43.2156 47.3491 42.8469 46.4932 42.8469H43.888C43.032 42.8469 42.2136 43.2156 41.6451 43.853L37.9028 48.0646L38.1964 47.8459ZM39.4085 41.8596C40.5455 40.5786 42.1761 39.8475 43.8942 39.8475H46.5057C48.2175 39.8475 49.8481 40.5786 50.9914 41.8596L60.3753 52.42C60.9063 53.0137 61.2 53.7885 61.2 54.5884C61.2 56.388 59.738 57.8502 57.9387 57.8502H32.4612C30.6619 57.844 29.2 56.3818 29.2 54.5821C29.2 53.7823 29.4936 53.0137 30.0246 52.4138L39.4085 41.8533V41.8596Z" fill="white"/>
</svg>
