<svg version="1.2" xmlns="http://www.w3.org/2000/svg" viewBox="0 0 1080 379" width="1080" height="379">
	<title>New Project</title>
	<defs>
		<filter x="-50%" y="-50%" width="200%" height="200%" id="f1" ><feDropShadow dx="11.126206254801447" dy="4.495279120990947" stdDeviation="5.416666666666667" flood-color="#000000" flood-opacity=".1"/></filter>
	</defs>
	<style>
		.s0 { filter: url(#f1);fill: #263238 } 
	</style>
	<g id="Logotype Warped">
		<path id="A" fill-rule="evenodd" class="s0" d="m217.9 61.4l30-3.4 1.7 3.4c1 1.9 15.5 29.4 32.4 61.2 28.5 53.7 30.7 58.3 29.5 61.2-0.6 1.7-1.4 2.6-1.6 1.8-0.3-1-4.3-1-29.9 1.3l-23.2-43.9c-12.8-24.1-23.6-43.9-23.9-44-0.3-0.2-4.4 7.8-9.1 17.8-4.7 10-8.6 18.6-8.6 19.2 0 0.7 5.4 0.5 13.9-0.5 7.6-0.8 13.8-1.2 13.8-0.9 0 0.3-1.8 3.6-4 7.3-2.3 3.8-5.8 9.7-11.5 19.3l-25.8 3.6-15.2 32.5-16 2-29.8 24.5c-16.5 13.5-31.1 25.8-32.6 27.1-1.5 1.2-2.8 2.1-3 1.8-0.2-0.2 10-15.7 22.6-34.2 12.6-18.5 25.1-36.8 27.6-40.6 2.6-3.9 5.2-7.1 5.8-7.2 0.6-0.1 1.4 0.7 1.7 1.7 0.4 1.2 0.9 1.4 1.6 0.6 0.6-0.7 5.5-10.6 11-22 5.4-11.4 17.3-36.3 26.3-55.2zm141.8 115.3q-10.6 0.7-20-2.5-9.4-3.1-16.3-9.5-6.9-6.4-10.9-15.5-4.1-9.1-4.1-20.2v-0.3q0-10.7 4-20.5 4-9.8 11-17.4 6.9-7.6 16.5-12.2 9.6-4.7 21-5.4 7.7-0.5 13.9 0.6 6.3 1.1 11.5 3.6 5.2 2.5 9.4 6.1 4.2 3.6 7.5 8l-20.8 17.1q-4.3-5.1-9.5-7.9-5-2.9-12.3-2.4-5.2 0.3-9.6 2.7-4.3 2.4-7.4 6.2-3.2 3.7-5 8.7-1.8 4.9-1.8 10.3v0.3q0 5.6 1.8 10.4 1.8 4.7 5 8.1 3.1 3.3 7.4 5.1 4.4 1.7 9.6 1.4 3.9-0.3 7.1-1.3 3.2-1.1 5.8-2.9 2.6-1.8 4.9-4.1 2.4-2.3 4.7-5.2l20.8 13.7q-3.6 5-7.8 9.4-4.2 4.3-9.5 7.6-5.4 3.3-12 5.4-6.6 2.1-14.9 2.6zm104-4.8q-10.7 0.3-20.1-3.2-9.4-3.5-16.3-10.1-6.9-6.7-11-15.9-4-9.3-4-20.4v-0.3q0-10.7 3.9-20.3 4.1-9.7 11-17 7-7.4 16.6-11.7 9.6-4.3 21.1-4.6 7.6-0.2 13.9 1.2 6.2 1.3 11.4 4 5.3 2.7 9.4 6.4 4.3 3.8 7.6 8.3l-20.8 16.4q-4.4-5.3-9.5-8.3-5.1-3-12.4-2.9-5.2 0.2-9.6 2.4-4.3 2.2-7.4 5.9-3.2 3.6-5 8.5-1.8 4.9-1.8 10.3v0.3q0 5.5 1.8 10.4 1.8 4.8 5 8.3 3.1 3.4 7.4 5.4 4.4 1.8 9.6 1.7 3.9-0.1 7.1-1 3.2-0.9 5.8-2.7 2.7-1.7 5-3.9 2.4-2.3 4.6-5l20.9 14.5q-3.6 4.9-7.8 9.1-4.2 4.1-9.6 7.2-5.3 3.1-11.9 5-6.6 1.8-14.9 2zm56.5-3c0 0 0-24.9 0-49.7 0-24.9 0-49.8 0-49.8h27.9c0 0 0 24.8 0 49.7 0 24.9 0 49.7 0 49.7zm42.9 0.1v-20.1l50-55.2-48.3-0.9v-23.3l86.5 2.1v20.1l-50 54.5 50 1.6v23.3zm94.6 2.4c0 0 10.6-24.6 21.2-49.1 10.7-24.5 21.3-48.9 21.3-48.9l26.6 1.6c0 0 10.6 25.8 21.2 51.6 10.6 25.9 21.1 51.8 21.1 51.8l-29.5-2.3-7.3-18.3-38.5-2.4-7 17.4zm44.2-37l22.4 1.4-11.1-29zm76.8 44.8c0 0 0-24.9 0-49.8 0-24.9 0-49.7 0-49.7l47 4.4q11.5 1.2 19.4 5 8 3.7 13 9.4 8.8 9.6 8.8 24.2v0.3q0 11.5-5.6 18.4-5.5 6.8-14.9 9.8l23.7 37.4-31.8-3.6-20-32.2-0.3-0.1-11.8-1.1v30.1zm27.6-49.2l18.1 1.8q7.2 0.8 11-2 3.8-2.9 3.8-8.2v-0.4q0-5.9-4-9.3-3.9-3.3-10.9-4l-18-1.8zm74.5 59.8c0 0 0-24.8 0-49.7 0-24.9 0-49.7 0-49.7l38.2 5q13.3 1.8 23.7 7 10.4 5.1 17.5 12.7 7.2 7.7 10.9 17.3 3.8 9.6 3.8 20.4v0.3q0 10.8-3.9 19.4-3.8 8.5-11 14.1-7.2 5.5-17.8 7.8-10.5 2.2-23.7 0.4zm27.4-20.9l11.2 1.5q12.3 1.7 19.8-3.7 7.5-5.5 7.5-17.6v-0.3q0-11.9-7.5-19.6-7.5-7.7-19.8-9.4l-11.2-1.5zm-627 142.9c0 0 0-24.9 0-49.7 0-24.9 0-49.8 0-49.8l27.5-2.4v75.3l48.3-3.6v24.2zm132.4-7.3q-10.7 0.5-19.2-1.8-8.5-2.2-14.5-7.5-5.9-5.3-9.1-13.7-3.2-8.4-3.2-20.1v-55.8l28-1.6v55.3q0 10.8 4.9 15.8 5 4.9 13.4 4.5 8.4-0.4 13.4-5.5 5-5.2 5-15.8v-56l28.1-0.9v55.1q0 12.1-3.4 21-3.3 8.8-9.4 14.6-6 5.8-14.6 8.9-8.6 3-19.4 3.5zm111.1-2.7q-10.6 0.1-20.1-3.6-9.4-3.8-16.3-10.5-6.8-6.8-11-16.2-4-9.3-4-20.4v-0.3q0-10.8 4-20.3 4-9.6 11-16.7 6.9-7.2 16.5-11.3 9.7-4.1 21.1-4.1 7.7-0.1 13.9 1.4 6.3 1.5 11.5 4.3 5.2 2.8 9.4 6.6 4.2 3.9 7.5 8.5l-20.8 15.9q-4.3-5.4-9.5-8.5-5-3.2-12.3-3.1-5.3 0-9.6 2.1-4.4 2.1-7.5 5.7-3.1 3.6-4.9 8.5-1.8 4.8-1.8 10.2v0.3q0 5.5 1.8 10.4 1.8 4.8 4.9 8.4 3.1 3.5 7.5 5.6 4.3 1.9 9.6 1.9 3.9 0 7.1-0.8 3.2-0.9 5.8-2.6 2.6-1.6 4.9-3.8 2.4-2.2 4.7-4.9l20.8 14.9q-3.5 4.9-7.8 9-4.2 4-9.5 7-5.4 3-12 4.7-6.6 1.7-14.9 1.7zm56-1.7c0 0 0-24.9 0-49.8 0-24.9 0-49.7 0-49.7l51.2 1.2q9.4 0.3 16 2.9 6.8 2.5 11.2 7.1 2.9 3.1 4.7 7.2 1.7 4 1.7 9.2v0.2q0 8.7-4.4 13.8-4.3 5.1-11 7.7 9.1 3.4 14.5 9.2 5.3 5.9 5.3 16v0.3q0 12.9-9.9 19.7-9.9 6.8-27.9 6.2zm27-59.3l17.4 0.5q6.4 0.2 9.7-1.8 3.3-2.1 3.3-6.5v-0.2q0-4.2-3.1-6.5-3.1-2.3-9.4-2.5l-17.9-0.5zm0 37.7l21.3 0.6q6.4 0.2 9.8-2 3.5-2.3 3.5-6.7v-0.3q0-4.1-3.3-6.6-3.2-2.6-10.3-2.8l-21-0.6zm66.9 24.6c0 0 10.6-24.5 21.2-49 10.6-24.4 21.2-48.8 21.2-48.8l26.6 1.8c0 0 10.6 25.9 21.2 51.7 10.6 26 21.2 51.9 21.2 51.9l-29.6-2.4-7.3-18.4-38.4-2.6-7.1 17.3zm44.3-36.6l22.4 1.5-11.2-29.1zm76.8 45.2c0 0 0-24.9 0-49.7 0-24.9 0-49.8 0-49.8l25.7 2.5 40.8 57.1v-52.6l27.3 3.3c0 0 0 24.9 0 49.7 0 24.9 0 49.8 0 49.8l-24.1-3-42.4-59.2v54.6z"/>
	</g>
</svg>