<svg version="1.2" xmlns="http://www.w3.org/2000/svg" viewBox="0 0 1080 1080" width="1080" height="1080">
	<title>New Project</title>
	<defs>
		<linearGradient id="g1" x2="1" gradientUnits="userSpaceOnUse" gradientTransform="matrix(779.073,0,0,769.039,167.43,548.052)">
			<stop offset="-0.033" stop-color="#000000"/>
			<stop offset="0" stop-color="#ff4f0b"/>
			<stop offset="1" stop-color="#d32f2f"/>
		</linearGradient>
	</defs>
	<style>
		.s0 { fill: url(#g1) } 
	</style>
	<path id="Logo Mark" fill-rule="evenodd" class="s0" d="m539.5 170.3c-7.1 3.5-16.6 8.1-21.1 10-4.5 2-12.4 5.4-17.5 7.6-5.2 2.3-12.8 5.5-17 7.3-4.2 1.8-8.2 3.2-8.8 3.2-0.6 0-4.6 1.5-8.8 3.4-4.2 1.8-17.1 6.6-28.6 10.6-11.6 4.1-23.2 8.3-25.8 9.4-2.6 1.2-8.9 3.3-14 4.7-5.2 1.5-11.5 3.6-14.1 4.6-2.5 1.1-16.2 5.1-30.4 9.1-14.2 3.9-32.1 8.7-39.8 10.7-7.7 2-19.8 4.8-26.9 6.3-7.1 1.5-18.1 3.6-24.6 4.6-6.4 1.1-28.5 4.6-49.1 7.8-20.6 3.2-39.3 5.9-41.6 6-3.7 0.1-4.1 3.2-4 33.4 0.1 18.4 1.7 45.5 3.6 60.3 1.9 14.8 4.5 34.3 5.6 43.3 1.2 9 4.3 25.9 6.8 37.4 2.6 11.6 6.9 29 9.6 38.7 2.7 9.6 5.7 21 6.6 25.2 0.9 4.2 2.5 7.6 3.4 7.6 1-0.1 1.8 2.3 1.8 5.2 0 2.9 3.2 12.9 7 22.2 3.9 9.4 7 18 7 19.3 0 1.3 3.3 9.5 7.3 18.2 3.9 8.7 12.6 26.8 19.1 40.3 6.6 13.6 13.9 26.7 16.3 29.3 4.3 4.7 4.3 4.6 10.7-2.3 3.6-3.9 9-10.7 12.2-15.3 3.1-4.5 8.1-10.8 11-14 3-3.2 5.4-6.6 5.4-7.6-0.1-1 3.6-5.7 8.1-10.5 4.5-4.9 8.1-10.9 8.2-13.5 0-2.6-3.1-10.7-7-18.1-3.8-7.4-7-15.1-7-17 0-1.9-0.8-3.5-1.8-3.5-0.9 0-3-3.4-4.5-7.6-1.5-4.2-7.7-21.8-13.8-39.2-6.1-17.4-13.1-40-15.6-50.3-2.5-10.3-5.4-24-6.5-30.5-1-6.4-3.5-22.2-5.6-35.1-2-12.8-3.6-28.1-3.7-33.9v-10.5c49.9-10.2 69.1-14.1 74.9-15.3 5.8-1.3 15.3-3.4 21.1-4.8 5.7-1.4 13.9-3 18.1-3.5 4.2-0.6 8.1-2.1 8.8-3.4 0.6-1.2 3-2.3 5.2-2.3 2.3 0 20.5-5.3 40.4-11.7 20-6.4 38.4-12.6 41-13.7 2.5-1.1 11-4.4 18.7-7.2 7.7-2.9 24.6-9.5 37.4-14.9 12.9-5.3 27.1-11.4 31.6-13.6 7.8-3.8 8.7-3.7 17 0.5 4.8 2.4 10.4 4.4 12.3 4.4 1.9 0 3.5 1.1 3.5 2.4 0 1.3 1.6 2.3 3.5 2.3 1.9 0 10.1 3.1 18.1 6.8 8.1 3.7 21 9.1 28.7 11.9 7.7 2.9 16.2 6 18.7 7.1 2.6 1 12.1 4.2 21.1 7.1 9 2.8 18.5 6 21.1 7 2.5 1.1 10.2 3.6 16.9 5.6 6.8 2 14.2 3.1 16.4 2.5 2.3-0.6 5.4-4.1 7.1-7.6 1.6-3.5 2.9-7.2 2.9-8.2 0-1 3-8.3 6.7-16.4 3.7-8 9-19.6 11.7-25.7 2.7-6.1 5-11.7 5-12.3 0-0.7-3.5-3.3-7.6-5.9-4.2-2.5-10-4.6-12.9-4.6-2.9 0-7.1-1-9.4-2.2-2.2-1.2-16.7-6.3-32.2-11.5-15.4-5.1-31.7-10.6-36.2-12.2-4.5-1.7-11.4-4.3-15.2-5.9-3.9-1.6-11.8-4.8-17.6-6.9-5.8-2.2-14.2-5.6-18.7-7.5-4.5-1.9-17.7-8.1-29.3-13.8-11.6-5.6-22.6-10.2-24.6-10.1-1.9 0.1-9.3 3.2-16.3 6.8zm281.6 39.3c-0.8 2.2-5.6 12.7-10.5 23.4-5 10.6-9 19.8-9 20.4 0 0.7-3.2 8.1-7 16.4-3.9 8.4-7 15.8-7 16.4 0 0.7-2.6 6.7-5.6 13.5-3.1 6.7-9 20.2-13.2 29.8-4.1 9.7-9.1 21.2-11 25.8-1.9 4.5-4.3 10.3-5.4 12.8-1 2.6-5.6 12.9-10.3 22.8-4.6 10-8.4 19.2-8.4 20.5 0 1.3 1.6 2.4 3.5 2.4 2 0 3.5-1.1 3.5-2.4 0-1.3 1.9-2.8 4.1-3.3 2.3-0.6 7.2-3 11.1-5.3 3.8-2.3 8-5.1 9.3-6.1 1.4-1 8.3-5.3 15.3-9.5 7.1-4.2 15.5-9.2 18.8-11 3.2-1.9 6.3-4 7-4.8 0.6-0.8 3.8-2.8 7-4.4 3.2-1.7 15.1-9.2 26.3-16.8 11.3-7.5 21.6-13.7 22.8-13.7 1.3 0 2.6-0.8 3-1.8 0.3-0.9 8.5-6.5 18.1-12.2 9.7-5.8 17.8-11.3 18.1-12.3 0.4-0.9 1.7-1.8 3-1.8 1.3 0 8.9-4.1 16.9-9.2 8.1-5.1 17.3-11.1 20.5-13.3 5.8-3.9 5.8-4 1.2-7.1-2.6-1.8-9.4-3.2-15.2-3.2-5.8 0-16.3-1-23.4-2.2-7.1-1.2-22.9-3.9-35.1-6-12.3-2-23.8-4.1-25.8-4.7-1.9-0.5-4.2-4.9-5.1-9.8-0.9-4.8-3.3-16.2-5.3-25.2-2-9-4.1-17.7-4.8-19.3-0.6-1.6-2.2-2.9-3.6-2.9-1.3 0-3 1.8-3.8 4.1zm113.9 105.3c0 0.9-5 4.3-11.1 7.5-6.1 3.2-11.7 6.4-12.3 7.1-0.7 0.6-4.3 3.3-8.2 5.9-3.9 2.6-9.7 6-12.9 7.7-3.2 1.6-11.1 6.9-17.5 11.7l-11.7 8.8c-2.4 28.9-4.3 44.1-5.9 52.5-1.5 8.4-3.7 20-4.7 25.8-1.1 5.7-3.7 16.8-5.8 24.5-2.1 7.7-4.8 17.8-5.9 22.3-1.2 4.5-5.2 16.6-9 26.9-3.7 10.3-8.1 21.9-9.6 25.7-1.5 3.9-5.4 12.8-8.7 19.9-3.2 7.1-9.1 19.7-13.1 28.1-4 8.4-7.9 15.7-8.6 16.4-0.7 0.6-3.8 5.9-7 11.7-3.1 5.8-6.8 12.6-8.1 15.1-1.4 2.5-3.4 5.6-4.5 7-1 1.3-4.2 6.5-7 11.4l-5.1 9c-46.9-91.9-76.3-150.2-95.7-188.8-19.4-38.6-36.1-70.5-37.1-70.8-1-0.3-1.7-2.4-1.7-4.7 0-2.2-0.8-4.9-1.8-5.9-1-1.1-7.1-12.1-13.5-24.6l-11.7-22.7h-79.2c-23.9 47.1-31.6 61.1-32.5 61.4-1 0.3-1.8 2.2-1.8 4.1 0 1.9-3.2 8.8-7 15.2-3.9 6.5-7 13.3-7 15.2 0 2-0.8 3.8-1.8 4.1-1 0.4-8.4 13.8-16.6 29.9-8.1 16.1-26.4 52.4-40.6 80.7-20.1 40.1-26.3 50.6-27.9 47.4-1.2-2.2-3.4-4.1-5-4.1-1.6-0.1-5.1 2.3-7.6 5.2-2.6 3-7.3 9-10.5 13.5-3.1 4.5-6.3 8.8-7.1 9.4-0.7 0.6-3.9 4.9-7 9.4-3.1 4.5-6.2 8.7-7 9.3-0.8 0.7-3.9 4.9-7 9.4-3.1 4.5-6.3 8.7-7.1 9.3-0.7 0.7-3.9 4.9-7.1 9.4-3.1 4.5-6.9 9.8-8.5 11.7-1.5 1.9-7.6 9.6-13.5 17-5.8 7.4-10.6 14.5-10.6 15.8 0 1.3-0.9 2.6-1.9 2.9-1 0.3-5.5 5.3-9.9 11.1-4.5 5.8-8.7 11.1-9.3 11.7-0.7 0.7-4 4.9-7.4 9.4-3.3 4.5-8.4 10.8-11.1 14-2.8 3.2-5 6.4-5 7 0.1 0.7-2.8 4.2-6.3 7.8q-6.5 6.7-4.1 9c1.5 1.6 4.6 1 9.3-1.9 3.9-2.3 8.4-5.6 10-7.2 1.6-1.6 5-3.5 7.6-4.1 2.6-0.7 4.6-2 4.6-3-0.1-0.9 3.1-3.3 7.1-5.2 3.9-2 7.1-4.1 7-4.7-0.1-0.7 3.1-2.8 7-4.7 4-1.9 7.2-4.3 7.1-5.3 0-0.9 1.8-2.2 4-2.9 2.3-0.6 7.8-3.8 12.3-7 4.5-3.2 9.3-6.7 10.6-7.7 1.2-1.1 20.2-13.9 42.1-28.5 21.9-14.6 40-27.5 40.4-28.5 0.3-1.1 10.3-2 22.2-2l21.6-0.1c21.6-42.5 30-59.4 32.7-64.9l4.8-10 63.2 0.2c9-14.5 12.5-18.7 13.4-18.8 1 0 1.8-1.1 1.8-2.4 0-1.3 6.3-11.8 14-23.4 7.8-11.6 13.5-22.1 12.9-23.4-0.7-1.4-14.8-2.3-35.1-2.3-18.7 0-34-0.8-34-1.8 0-0.9 9.1-20.2 20.2-42.7l20.2-40.9c7.8 14.5 19 36.6 29.9 58.5 10.9 21.9 20.7 40 21.6 40.3 1 0.4 1.8 1.9 1.8 3.6 0.1 1.6 14 31 31 65.4l31 62.4 73.8 1.5c-18.9 23.5-29.8 36.1-36.3 43-6.4 6.9-15 15.9-18.9 19.9-4 4-13.5 13.1-21.1 20.1-7.7 7.1-18.6 16.6-24.4 21.1-5.8 4.4-11.1 8.6-11.7 9.3-0.7 0.7-10.1 7.7-21.1 15.6-10.9 7.8-27 18.6-35.7 23.9-8.7 5.4-17.1 9.7-18.7 9.6-1.6 0-7.1-2.4-12.3-5.2-5.1-2.9-10.4-6-11.7-7-1.3-1-9.1-6.3-17.4-11.7-8.2-5.5-16.7-11-18.7-12.3-2-1.2-4.2-2.8-4.8-3.5-0.7-0.7-8.6-7-17.6-14-9-7-19.4-15.4-23.1-18.7-3.7-3.2-18.7-17.7-33.4-32.2-14.6-14.5-27.9-26.4-29.5-26.4-1.6 0-5.3 2.1-8.2 4.7-2.9 2.6-6.1 4.7-7 4.7-1-0.1-3.9 1.9-6.5 4.2-2.5 2.4-12.4 9.5-21.9 15.9-9.5 6.3-17.7 12.3-18.2 13.3-0.4 0.9 16.3 19.2 37.2 40.6 20.9 21.4 48 46.4 60.2 55.6 12.1 9.2 23.2 17.8 24.6 19.1 1.3 1.4 7.4 5.9 13.5 10 6.1 4.1 12.2 7.5 13.5 7.5 1.3 0 2.6 0.8 2.9 1.7 0.3 1 4 4.2 8.2 7.1 4.2 2.9 8.1 5.2 8.8 5.2 0.6 0 5.6 2.9 11.1 6.5 5.5 3.6 17.8 10.6 27.5 15.6 9.6 5 18.1 10 18.7 11.1 0.7 1.2 3 1.5 5.3 0.8 2.2-0.6 4.1-2.3 4.1-3.5 0-1.3 1.3-2.4 2.9-2.4 1.6 0 7.7-2.3 13.5-5.2 5.7-2.9 10.7-6.1 11.1-7.1 0.3-0.9 1.6-1.7 2.9-1.7 1.3 0 8.4-3.9 15.8-8.6 7.4-4.7 20.8-13.3 29.8-19.2 9-5.9 17.8-12.1 19.5-13.7 1.7-1.7 3.8-3 4.7-3 0.9 0 4.2-2.4 7.5-5.3 3.2-2.9 10-8.1 15.2-11.7 5.1-3.5 15.6-11.9 23.3-18.7 7.7-6.7 23.5-21.8 35.1-33.3 11.6-11.6 26.6-27.4 33.3-35.1 6.7-7.8 17.8-21.5 24.7-30.5 6.9-9 17.9-24.2 24.4-33.9 6.5-9.7 15.1-23.3 19.1-30.4 4-7.1 15.1-28.7 24.5-48 9.5-19.3 18.6-38.8 20.2-43.3 1.6-4.5 3.7-10.3 4.7-12.9 1-2.6 3.5-8.6 5.6-13.4 2.1-4.9 3.9-9.9 3.9-11.2 0-1.2 1.5-5.7 3.3-9.9 1.8-4.2 3.8-10.2 4.5-13.5 0.7-3.2 3.5-13.7 6.3-23.4 2.8-9.6 5.9-21.7 6.9-26.9 1-5.1 3.1-15.1 4.6-22.2 1.4-7.1 3.7-20.3 5-29.3 1.3-9 3.4-25.3 4.6-36.2 1.3-11 2.8-30.2 3.5-42.8 1.2-21.7 1-22.8-3.5-22.8-2.7 0-4.8 0.8-4.8 1.8z"/>
</svg>